<?xml version="1.0" encoding="UTF-8"?>
<!DOCTYPE svg PUBLIC "-//W3C//DTD SVG 1.1//EN" "http://www.w3.org/Graphics/SVG/1.1/DTD/svg11.dtd">
<!-- Creator: CorelDRAW 2017 -->
<svg xmlns="http://www.w3.org/2000/svg" xml:space="preserve" width="130px" height="65px" version="1.1" style="shape-rendering:geometricPrecision; text-rendering:geometricPrecision; image-rendering:optimizeQuality; fill-rule:evenodd; clip-rule:evenodd"
viewBox="0 0 130 65.08"
 xmlns:xlink="http://www.w3.org/1999/xlink">
 <defs>
  <style type="text/css">
   <![CDATA[
    .str0 {stroke:#474749;stroke-width:0.81}
    .fil0 {fill:none}
    .fil1 {fill:#790E10;fill-rule:nonzero}
    .fil2 {fill:url(#id0);fill-rule:nonzero}
   ]]>
  </style>
  <linearGradient id="id0" gradientUnits="userSpaceOnUse" x1="64.57" y1="46.21" x2="65.43" y2="-0.02">
   <stop offset="0" style="stop-opacity:1; stop-color:#474749"/>
   <stop offset="1" style="stop-opacity:1; stop-color:#48484A"/>
  </linearGradient>
 </defs>
 <g id="Layer_x0020_1">
  <metadata id="CorelCorpID_0Corel-Layer"/>
  <line class="fil0 str0" x1="0" y1="49.28" x2="130" y2= "49.28" />
  <path class="fil1" d="M8.12 64.57c-1.1,0 -2.08,-0.24 -2.91,-0.7 -0.84,-0.47 -1.48,-1.12 -1.93,-1.97 -0.45,-0.85 -0.67,-1.85 -0.67,-3 0,-1.23 0.27,-2.33 0.83,-3.32 0.55,-0.98 1.32,-1.75 2.29,-2.31 0.98,-0.56 2.09,-0.83 3.32,-0.83 0.45,0 0.92,0.03 1.39,0.1 0.47,0.06 0.87,0.13 1.2,0.2 0.32,0.07 0.53,0.11 0.62,0.14l0.07 0.11c-0.02,0.07 -0.06,0.25 -0.12,0.53 -0.06,0.28 -0.12,0.65 -0.18,1.1 -0.07,0.45 -0.12,0.93 -0.16,1.43l-0.89 0.07c0.02,-0.06 0.03,-0.17 0.04,-0.34 0.01,-0.16 0.02,-0.35 0.02,-0.55 0,-1.14 -0.91,-1.71 -2.71,-1.71 -0.82,0 -1.53,0.19 -2.14,0.59 -0.62,0.39 -1.09,0.94 -1.42,1.66 -0.34,0.71 -0.5,1.55 -0.5,2.52 0,1.06 0.17,2 0.52,2.81 0.35,0.8 0.85,1.43 1.49,1.88 0.64,0.44 1.38,0.67 2.21,0.67 0.84,0 1.51,-0.24 2.02,-0.71 0.51,-0.47 0.89,-1.2 1.12,-2.19l0.88 -0.07c-0.03,0.18 -0.11,0.59 -0.24,1.22 -0.12,0.63 -0.2,1.22 -0.25,1.77l-0.11 0.16c0,0.01 -0.19,0.08 -0.57,0.21 -0.37,0.13 -0.84,0.25 -1.4,0.36 -0.56,0.11 -1.16,0.17 -1.82,0.17zm18.81 0c-0.99,0 -1.88,-0.24 -2.65,-0.72 -0.78,-0.48 -1.38,-1.15 -1.81,-2.01 -0.43,-0.86 -0.65,-1.84 -0.65,-2.94 0,-1.2 0.27,-2.3 0.81,-3.28 0.53,-0.98 1.26,-1.76 2.19,-2.33 0.93,-0.57 1.95,-0.85 3.07,-0.85 1.02,0 1.93,0.23 2.72,0.71 0.78,0.48 1.4,1.15 1.84,2 0.44,0.86 0.67,1.84 0.67,2.94 0,1.2 -0.28,2.29 -0.83,3.28 -0.54,0.99 -1.29,1.77 -2.23,2.34 -0.94,0.57 -1.98,0.86 -3.13,0.86zm0.58 -0.94c0.77,0 1.46,-0.2 2.06,-0.61 0.61,-0.4 1.07,-0.96 1.41,-1.68 0.33,-0.73 0.49,-1.55 0.49,-2.48 0,-1.04 -0.18,-1.96 -0.53,-2.76 -0.36,-0.8 -0.85,-1.43 -1.49,-1.88 -0.63,-0.46 -1.36,-0.68 -2.18,-0.68 -0.75,0 -1.42,0.2 -2,0.6 -0.59,0.41 -1.04,0.97 -1.37,1.69 -0.33,0.72 -0.49,1.55 -0.49,2.48 0,1.04 0.17,1.96 0.52,2.76 0.34,0.8 0.82,1.43 1.45,1.88 0.62,0.45 1.33,0.68 2.13,0.68zm24.75 1.45c-1.07,-1.65 -2.11,-3.23 -3.13,-4.73 -1.01,-1.49 -1.85,-2.71 -2.5,-3.63 -0.65,-0.92 -1.06,-1.51 -1.23,-1.75l-0.1 0 -0.09 7.83c0,0.27 0.04,0.46 0.13,0.57 0.09,0.11 0.23,0.17 0.44,0.17l0.94 -0.02 0.04 0.07 -0.17 0.83c-0.13,-0.01 -0.41,-0.03 -0.83,-0.05 -0.41,-0.02 -0.79,-0.02 -1.12,-0.02 -0.31,0 -0.64,0.02 -1.01,0.06 -0.36,0.04 -0.6,0.07 -0.71,0.08l0.1 -0.84c0.38,-0.05 0.66,-0.16 0.84,-0.34 0.19,-0.18 0.29,-0.45 0.3,-0.82l0.24 -8.02c0,-0.38 -0.11,-0.65 -0.34,-0.8 -0.23,-0.16 -0.65,-0.27 -1.27,-0.33l-0.05 -0.1 0.15 -0.68c0.11,0.02 0.35,0.04 0.72,0.06 0.36,0.02 0.65,0.04 0.86,0.04 0.26,0 0.51,-0.01 0.76,-0.03 0.25,-0.02 0.41,-0.03 0.48,-0.05 0.91,1.41 1.82,2.79 2.74,4.13 0.92,1.35 1.68,2.45 2.3,3.32 0.61,0.87 1,1.42 1.16,1.65l0.09 0 0 -7.43c0,-0.52 -0.2,-0.79 -0.61,-0.79l-0.7 0.02 -0.04 -0.07 0.17 -0.83c0.12,0.02 0.36,0.03 0.7,0.05 0.34,0.02 0.7,0.03 1.05,0.03 0.32,0 0.68,-0.03 1.06,-0.07 0.39,-0.04 0.65,-0.07 0.77,-0.08l-0.09 0.84c-0.43,0.06 -0.75,0.18 -0.94,0.36 -0.2,0.18 -0.31,0.44 -0.32,0.8l-0.26 10.31 -0.53 0.26zm14.68 -0.51c-0.52,0 -0.99,-0.05 -1.42,-0.14 -0.43,-0.09 -0.79,-0.19 -1.06,-0.3 -0.28,-0.11 -0.42,-0.18 -0.42,-0.19l-0.09 -0.18c0.01,-0.08 0.04,-0.26 0.07,-0.55 0.04,-0.3 0.07,-0.68 0.1,-1.15 0.03,-0.47 0.05,-0.97 0.05,-1.49l0.83 -0.1c0,0.92 0.06,1.6 0.18,2.04 0.13,0.44 0.35,0.74 0.69,0.91 0.33,0.16 0.84,0.25 1.53,0.25 0.77,0 1.39,-0.18 1.86,-0.54 0.47,-0.37 0.7,-0.86 0.7,-1.48 0,-0.37 -0.12,-0.7 -0.38,-0.99 -0.25,-0.3 -0.55,-0.55 -0.89,-0.76 -0.34,-0.2 -0.85,-0.48 -1.53,-0.84 -0.64,-0.33 -1.16,-0.63 -1.57,-0.91 -0.41,-0.27 -0.75,-0.6 -1.02,-0.98 -0.28,-0.38 -0.42,-0.82 -0.42,-1.32 0,-0.64 0.19,-1.21 0.56,-1.73 0.38,-0.52 0.89,-0.93 1.54,-1.23 0.64,-0.3 1.36,-0.45 2.14,-0.45 0.5,0 0.95,0.03 1.37,0.1 0.42,0.06 0.75,0.13 1,0.21 0.24,0.07 0.4,0.12 0.46,0.14l0.05 0.11c-0.01,0.08 -0.04,0.25 -0.09,0.52 -0.05,0.27 -0.1,0.64 -0.17,1.12 -0.06,0.48 -0.11,0.96 -0.14,1.47l-0.72 0.07 -0.11 -0.09c0.01,-0.05 0.02,-0.16 0.03,-0.34 0.02,-0.18 0.02,-0.38 0.02,-0.62 0,-0.64 -0.16,-1.09 -0.48,-1.34 -0.32,-0.24 -0.89,-0.36 -1.71,-0.36 -0.68,0 -1.24,0.17 -1.67,0.5 -0.44,0.34 -0.66,0.76 -0.66,1.26 0,0.49 0.21,0.91 0.64,1.27 0.42,0.36 1.05,0.76 1.87,1.19 0.8,0.4 1.41,0.73 1.83,1 0.42,0.26 0.78,0.59 1.1,0.98 0.32,0.39 0.48,0.84 0.48,1.36 0,0.68 -0.19,1.3 -0.58,1.84 -0.38,0.55 -0.92,0.97 -1.61,1.28 -0.69,0.3 -1.48,0.46 -2.36,0.46zm19.66 0c-1.29,0 -2.29,-0.36 -2.99,-1.06 -0.7,-0.7 -1.05,-1.7 -1.05,-3l0 -6.07c0,-0.4 -0.05,-0.66 -0.14,-0.79 -0.09,-0.14 -0.28,-0.2 -0.55,-0.2 -0.12,0 -0.24,0 -0.37,0.01 -0.12,0.02 -0.2,0.02 -0.25,0.02l-0.04 -0.07 0.13 -0.81c0.15,0.01 0.43,0.03 0.84,0.04 0.41,0.01 0.83,0.02 1.24,0.02 0.34,0 0.71,-0.03 1.13,-0.07 0.42,-0.04 0.69,-0.07 0.81,-0.1l-0.07 0.83c-0.46,0.06 -0.76,0.16 -0.92,0.3 -0.15,0.14 -0.24,0.39 -0.26,0.74l-0.15 5.4c0,1.21 0.26,2.14 0.79,2.79 0.53,0.65 1.29,0.97 2.29,0.97 1.01,0 1.78,-0.27 2.31,-0.8 0.52,-0.53 0.79,-1.3 0.79,-2.3 -0.01,-0.98 -0.03,-2.1 -0.06,-3.35 -0.02,-1.25 -0.04,-2.13 -0.05,-2.63 -0.03,-0.43 -0.08,-0.7 -0.16,-0.82 -0.08,-0.12 -0.25,-0.17 -0.52,-0.17 -0.15,0 -0.31,0 -0.47,0.01 -0.16,0.02 -0.27,0.02 -0.33,0.02l-0.03 -0.07 0.13 -0.81c0.14,0.01 0.42,0.03 0.83,0.04 0.42,0.01 0.83,0.02 1.25,0.02 0.33,0 0.69,-0.03 1.06,-0.07 0.38,-0.04 0.62,-0.07 0.73,-0.1l-0.07 0.83c-0.37,0.05 -0.65,0.1 -0.83,0.17 -0.17,0.07 -0.29,0.17 -0.36,0.29 -0.06,0.13 -0.09,0.33 -0.09,0.58l0 6.17c0,1.28 -0.4,2.28 -1.2,2.98 -0.8,0.7 -1.92,1.06 -3.37,1.06zm15.78 -0.89c0.48,-0.07 0.81,-0.21 0.99,-0.43 0.18,-0.21 0.27,-0.58 0.27,-1.11l0.02 -7.7c0,-0.4 -0.05,-0.66 -0.14,-0.79 -0.1,-0.14 -0.28,-0.2 -0.55,-0.2 -0.12,0 -0.24,0 -0.37,0.01 -0.12,0.02 -0.2,0.02 -0.25,0.02l-0.04 -0.07 0.13 -0.81c0.15,0.01 0.42,0.03 0.83,0.04 0.4,0.01 0.82,0.02 1.23,0.02 0.34,0 0.71,-0.03 1.14,-0.07 0.42,-0.04 0.7,-0.07 0.84,-0.1l-0.08 0.83c-0.4,0.05 -0.68,0.13 -0.84,0.24 -0.15,0.11 -0.24,0.23 -0.27,0.38 -0.03,0.15 -0.07,0.51 -0.1,1.08 -0.08,1.04 -0.13,2.23 -0.17,3.56 -0.04,1.34 -0.05,2.51 -0.05,3.53 0,0.44 0.03,0.75 0.11,0.94 0.07,0.19 0.21,0.32 0.41,0.38 0.2,0.06 0.55,0.09 1.04,0.09 0.75,0 1.3,-0.06 1.66,-0.18 0.35,-0.13 0.61,-0.36 0.79,-0.72 0.18,-0.35 0.34,-0.92 0.49,-1.71l0.81 -0.09 0.05 0.09c-0.03,0.2 -0.11,0.64 -0.23,1.33 -0.11,0.68 -0.21,1.4 -0.3,2.16l-0.09 0.11c-0.36,-0.02 -1.09,-0.06 -2.21,-0.1 -1.11,-0.04 -2.03,-0.06 -2.76,-0.06 -0.57,0 -1.1,0.02 -1.57,0.07 -0.48,0.05 -0.77,0.08 -0.9,0.11l0.11 -0.85zm17.6 -0.05c0.61,-0.05 1.04,-0.13 1.27,-0.23 0.23,-0.1 0.39,-0.29 0.46,-0.57 0.07,-0.27 0.11,-0.76 0.11,-1.46l0 -8c-1.04,0.04 -1.75,0.1 -2.13,0.18 -0.37,0.08 -0.63,0.25 -0.77,0.53 -0.13,0.27 -0.25,0.81 -0.36,1.6l-0.87 0.08c0.15,-1.16 0.24,-2.22 0.28,-3.18l0.16 -0.14 1.53 0.2 5.72 0 1.57 -0.2 0.17 0.14c0.03,1.01 0.13,2.04 0.27,3.1l-0.86 0.08c-0.14,-0.81 -0.27,-1.35 -0.41,-1.64 -0.14,-0.28 -0.38,-0.46 -0.72,-0.55 -0.34,-0.08 -1.01,-0.15 -1.99,-0.2 -0.08,0.74 -0.14,2.03 -0.2,3.89 -0.07,1.86 -0.1,3.54 -0.1,5.03 0,0.45 0.08,0.77 0.24,0.96 0.16,0.19 0.43,0.29 0.81,0.29 0.37,0 0.71,-0.02 1.02,-0.06l0.05 0.08 -0.16 0.84 -0.61 -0.02 -2.1 -0.03c-0.68,0 -1.52,0.02 -2.53,0.07l0.15 -0.79z"/>
  <path class="fil2" d="M15.9 46.19c-1.55,0 -2.92,-0.17 -4.1,-0.52 -1.18,-0.34 -2.21,-0.75 -3.07,-1.22 -0.99,-0.52 -1.83,-1.12 -2.52,-1.81 -0.34,0.47 -0.72,0.9 -1.13,1.29 -0.41,0.39 -0.78,0.69 -1.13,0.9 -0.43,0.31 -0.86,0.54 -1.29,0.71l-1.62 0 0 -10.98 2.59 0c0.6,1.9 1.42,3.58 2.45,5.04 0.86,1.25 1.98,2.39 3.36,3.43 1.38,1.03 3.1,1.55 5.17,1.55 1.81,0 3.18,-0.46 4.1,-1.36 0.93,-0.91 1.39,-2.18 1.39,-3.81 0,-1.21 -0.46,-2.24 -1.39,-3.1 -0.92,-0.86 -2.08,-1.68 -3.45,-2.46 -1.38,-0.77 -2.89,-1.56 -4.53,-2.36 -1.63,-0.79 -3.14,-1.69 -4.52,-2.68 -1.38,-0.99 -2.53,-2.13 -3.45,-3.42 -0.93,-1.29 -1.39,-2.87 -1.39,-4.72 0,-1.2 0.24,-2.33 0.74,-3.39 0.49,-1.05 1.29,-1.98 2.39,-2.78 1.1,-0.79 2.51,-1.42 4.23,-1.87 1.72,-0.45 3.79,-0.68 6.2,-0.68 1.3,0 2.48,0.18 3.56,0.55 1.07,0.37 2,0.79 2.77,1.26 0.91,0.52 1.73,1.1 2.46,1.74 0.34,-0.47 0.72,-0.89 1.13,-1.26 0.41,-0.36 0.79,-0.67 1.13,-0.93 0.43,-0.26 0.86,-0.5 1.29,-0.71l1.62 0 0 10.98 -2.59 0c-0.64,-1.85 -1.44,-3.51 -2.39,-4.97 -0.82,-1.25 -1.85,-2.41 -3.1,-3.46 -1.25,-1.06 -2.78,-1.58 -4.58,-1.58 -1.12,0 -2.1,0.43 -2.94,1.29 -0.84,0.86 -1.26,1.94 -1.26,3.23 0,1.29 0.46,2.41 1.39,3.36 0.92,0.95 2.07,1.83 3.45,2.65 1.38,0.82 2.89,1.61 4.52,2.39 1.64,0.77 3.15,1.64 4.53,2.61 1.37,0.97 2.53,2.07 3.45,3.3 0.93,1.23 1.39,2.7 1.39,4.42 0,1.38 -0.26,2.64 -0.77,3.78 -0.52,1.14 -1.36,2.13 -2.52,2.97 -1.17,0.84 -2.7,1.49 -4.59,1.94 -1.9,0.45 -4.22,0.68 -6.98,0.68zm30.69 -17.12c1.46,0 2.75,-0.03 3.87,-0.1 1.12,-0.06 2.07,-0.14 2.85,-0.22 0.9,-0.09 1.68,-0.2 2.32,-0.32 0.09,-0.44 0.2,-0.91 0.33,-1.43 0.08,-0.47 0.16,-1 0.22,-1.58 0.07,-0.58 0.1,-1.19 0.1,-1.84 0,-1.94 -0.15,-3.56 -0.45,-4.88 -0.3,-1.31 -0.68,-2.38 -1.13,-3.2 -0.46,-0.81 -0.97,-1.4 -1.55,-1.74 -0.59,-0.34 -1.16,-0.52 -1.72,-0.52 -0.56,0 -1.13,0.21 -1.71,0.62 -0.58,0.41 -1.1,1.18 -1.55,2.32 -0.45,1.14 -0.83,2.75 -1.13,4.82 -0.3,2.06 -0.45,4.75 -0.45,8.07zm6.46 17.12c-5.51,0 -9.8,-1.52 -12.86,-4.55 -3.05,-3.04 -4.58,-7.23 -4.58,-12.57 0,-2.67 0.38,-5.06 1.16,-7.17 0.77,-2.11 1.85,-3.91 3.23,-5.39 1.38,-1.49 3.05,-2.62 5.01,-3.4 1.96,-0.77 4.1,-1.16 6.42,-1.16 2.42,0 4.58,0.35 6.5,1.04 1.91,0.68 3.54,1.61 4.87,2.77 1.34,1.17 2.36,2.53 3.07,4.11 0.71,1.57 1.07,3.24 1.07,5 0,0.6 -0.03,1.13 -0.1,1.58 -0.06,0.46 -0.14,0.86 -0.22,1.2 -0.13,0.43 -0.24,0.8 -0.33,1.1 -1.89,0.39 -3.9,0.71 -6.01,0.97 -1.8,0.26 -3.89,0.48 -6.26,0.68 -2.37,0.19 -4.85,0.29 -7.43,0.29 0,2.67 0.19,4.9 0.58,6.68 0.39,1.79 0.93,3.21 1.62,4.27 0.68,1.05 1.5,1.81 2.45,2.26 0.95,0.45 1.98,0.68 3.1,0.68 1.29,0 2.51,-0.24 3.65,-0.71 1.14,-0.48 2.13,-1.11 2.97,-1.91 0.84,-0.8 1.51,-1.7 2.01,-2.71 0.49,-1.02 0.74,-2.04 0.74,-3.07l1.61 0c0,1.29 -0.29,2.54 -0.87,3.74 -0.58,1.21 -1.41,2.28 -2.49,3.2 -1.07,0.93 -2.36,1.67 -3.87,2.23 -1.51,0.56 -3.19,0.84 -5.04,0.84zm27.13 -46.19c3.88,0 5.82,1.94 5.82,5.81l0 37.47 3.87 0.97 0 0.97 -18.09 0 0 -0.97 3.88 -0.97 0 -41.34 -3.88 -0.97 0 -0.97 8.4 0zm26.17 30.04c-0.26,0.56 -0.48,1.21 -0.65,1.94 -0.17,0.6 -0.32,1.31 -0.45,2.13 -0.13,0.82 -0.2,1.72 -0.2,2.71 0,2.59 0.4,4.42 1.2,5.49 0.8,1.08 1.69,1.62 2.68,1.62 0.99,0 1.84,-0.27 2.55,-0.81 0.71,-0.54 1.3,-1.13 1.78,-1.77 0.56,-0.78 1.05,-1.64 1.48,-2.59l0 -9.37c-0.99,0 -1.98,0.04 -2.97,0.1 -0.99,0.07 -1.89,0.14 -2.71,0.23 -0.95,0.13 -1.85,0.23 -2.71,0.32zm2.58 -18.09c2.58,0 4.88,0.35 6.88,1.04 2,0.68 3.69,1.64 5.07,2.87 1.38,1.23 2.42,2.69 3.13,4.39 0.72,1.7 1.07,3.57 1.07,5.59l0 17.44 3.88 0.97 0 0.97 -5.82 0c-1.55,0 -2.8,-0.25 -3.74,-0.74 -0.95,-0.5 -1.71,-1.05 -2.27,-1.65 -0.64,-0.73 -1.12,-1.55 -1.42,-2.45 -0.56,1.12 -1.27,2.09 -2.13,2.9 -0.73,0.74 -1.7,1.4 -2.91,2.01 -1.2,0.6 -2.64,0.9 -4.32,0.9 -2.03,0 -3.78,-0.23 -5.27,-0.68 -1.48,-0.45 -2.72,-1.07 -3.71,-1.87 -0.99,-0.8 -1.74,-1.72 -2.23,-2.78 -0.5,-1.05 -0.75,-2.18 -0.75,-3.39 0,-0.99 0.11,-1.91 0.33,-2.75 0.21,-0.84 0.47,-1.58 0.77,-2.22 0.35,-0.78 0.73,-1.49 1.17,-2.14 1.8,-0.43 3.72,-0.82 5.75,-1.16 1.72,-0.3 3.66,-0.59 5.81,-0.87 2.15,-0.28 4.33,-0.46 6.52,-0.55l0 -1.94c0,-2.5 -0.16,-4.56 -0.48,-6.2 -0.32,-1.64 -0.79,-2.93 -1.39,-3.88 -0.6,-0.94 -1.34,-1.6 -2.23,-1.97 -0.88,-0.36 -1.88,-0.55 -3,-0.55 -0.48,0 -0.91,0.04 -1.29,0.1 -0.39,0.07 -0.74,0.14 -1.04,0.23 -0.34,0.13 -0.64,0.23 -0.9,0.32l0 9.69c-0.3,0.09 -0.58,0.15 -0.84,0.19 -0.26,0.05 -0.53,0.08 -0.81,0.1 -0.28,0.02 -0.59,0.03 -0.94,0.03 -1.46,0 -2.63,-0.44 -3.52,-1.32 -0.88,-0.88 -1.32,-2.06 -1.32,-3.52 0,-0.91 0.22,-1.78 0.68,-2.62 0.45,-0.84 1.16,-1.59 2.13,-2.26 0.97,-0.67 2.21,-1.21 3.71,-1.61 1.51,-0.41 3.32,-0.62 5.43,-0.62z"/>
 </g>
</svg>
