<?xml version="1.0" encoding="UTF-8"?>
<!DOCTYPE svg PUBLIC "-//W3C//DTD SVG 1.1//EN" "http://www.w3.org/Graphics/SVG/1.1/DTD/svg11.dtd">
<!-- Creator: CorelDRAW 2017 -->
<svg xmlns="http://www.w3.org/2000/svg" xml:space="preserve" width="100px" height="50px" version="1.1" style="shape-rendering:geometricPrecision; text-rendering:geometricPrecision; image-rendering:optimizeQuality; fill-rule:evenodd; clip-rule:evenodd"
viewBox="0 0 100 50.06"
 xmlns:xlink="http://www.w3.org/1999/xlink">
 <defs>
  <style type="text/css">
   <![CDATA[
    .str0 {stroke:white;stroke-width:0.62}
    .fil0 {fill:none}
    .fil1 {fill:#FEFEFE;fill-rule:nonzero}
   ]]>
  </style>
 </defs>
 <g id="Layer_x0020_1">
  <metadata id="CorelCorpID_0Corel-Layer"/>
  <line class="fil0 str0" x1="0" y1="37.91" x2="100" y2= "37.91" />
  <path class="fil1" d="M6.25 49.67c-0.85,0 -1.6,-0.18 -2.24,-0.54 -0.65,-0.36 -1.14,-0.86 -1.49,-1.52 -0.34,-0.65 -0.51,-1.42 -0.51,-2.31 0,-0.94 0.21,-1.79 0.63,-2.54 0.43,-0.76 1.02,-1.35 1.77,-1.78 0.75,-0.43 1.6,-0.64 2.55,-0.64 0.35,0 0.71,0.02 1.07,0.07 0.36,0.05 0.67,0.11 0.92,0.16 0.25,0.05 0.41,0.09 0.48,0.1l0.05 0.09c-0.01,0.06 -0.05,0.19 -0.09,0.41 -0.04,0.21 -0.09,0.5 -0.14,0.85 -0.05,0.34 -0.09,0.71 -0.12,1.1l-0.68 0.05c0.01,-0.04 0.02,-0.13 0.03,-0.26 0.01,-0.13 0.01,-0.27 0.01,-0.43 0,-0.87 -0.69,-1.31 -2.09,-1.31 -0.62,0 -1.17,0.15 -1.64,0.45 -0.47,0.3 -0.84,0.73 -1.09,1.28 -0.26,0.55 -0.39,1.19 -0.39,1.94 0,0.82 0.14,1.54 0.41,2.16 0.27,0.62 0.65,1.1 1.14,1.44 0.49,0.35 1.06,0.52 1.7,0.52 0.65,0 1.16,-0.18 1.56,-0.54 0.39,-0.37 0.68,-0.93 0.86,-1.69l0.68 -0.06c-0.03,0.14 -0.09,0.46 -0.19,0.94 -0.09,0.49 -0.16,0.94 -0.2,1.36l-0.08 0.13c0,0.01 -0.15,0.06 -0.43,0.16 -0.29,0.1 -0.65,0.19 -1.08,0.28 -0.43,0.08 -0.9,0.13 -1.4,0.13zm14.47 0c-0.77,0 -1.45,-0.19 -2.04,-0.55 -0.6,-0.37 -1.06,-0.89 -1.4,-1.55 -0.33,-0.66 -0.49,-1.42 -0.49,-2.27 0,-0.92 0.2,-1.76 0.62,-2.52 0.41,-0.75 0.97,-1.35 1.68,-1.79 0.72,-0.44 1.51,-0.65 2.37,-0.65 0.78,0 1.48,0.18 2.08,0.55 0.61,0.36 1.08,0.88 1.42,1.53 0.34,0.66 0.51,1.42 0.51,2.26 0,0.93 -0.21,1.77 -0.63,2.53 -0.42,0.76 -0.99,1.36 -1.72,1.8 -0.72,0.44 -1.52,0.66 -2.4,0.66zm0.44 -0.72c0.6,0 1.12,-0.16 1.59,-0.47 0.46,-0.31 0.82,-0.74 1.08,-1.3 0.25,-0.55 0.38,-1.19 0.38,-1.9 0,-0.8 -0.14,-1.51 -0.41,-2.13 -0.28,-0.61 -0.66,-1.1 -1.14,-1.45 -0.49,-0.34 -1.05,-0.52 -1.69,-0.52 -0.57,0 -1.09,0.16 -1.54,0.47 -0.44,0.31 -0.79,0.74 -1.05,1.3 -0.25,0.55 -0.37,1.19 -0.37,1.9 0,0.8 0.13,1.51 0.4,2.13 0.26,0.61 0.63,1.1 1.11,1.44 0.48,0.35 1.02,0.53 1.64,0.53zm19.04 1.11c-0.82,-1.27 -1.63,-2.48 -2.41,-3.63 -0.78,-1.16 -1.42,-2.09 -1.92,-2.8 -0.5,-0.71 -0.82,-1.16 -0.95,-1.35l-0.07 0 -0.07 6.03c0,0.21 0.03,0.35 0.1,0.44 0.06,0.08 0.18,0.13 0.34,0.13l0.72 -0.02 0.03 0.06 -0.13 0.63c-0.1,-0.01 -0.31,-0.02 -0.64,-0.03 -0.32,-0.02 -0.61,-0.02 -0.86,-0.02 -0.24,0 -0.5,0.01 -0.78,0.05 -0.27,0.03 -0.46,0.05 -0.54,0.06l0.07 -0.65c0.29,-0.04 0.51,-0.12 0.65,-0.26 0.14,-0.14 0.22,-0.35 0.23,-0.63l0.18 -6.17c0,-0.29 -0.08,-0.5 -0.26,-0.62 -0.17,-0.12 -0.5,-0.21 -0.97,-0.25l-0.04 -0.07 0.11 -0.53c0.08,0.01 0.27,0.03 0.55,0.05 0.29,0.02 0.51,0.02 0.67,0.02 0.2,0 0.39,0 0.58,-0.02 0.19,-0.01 0.31,-0.02 0.37,-0.03 0.7,1.08 1.4,2.14 2.11,3.17 0.7,1.04 1.29,1.89 1.77,2.56 0.47,0.67 0.77,1.09 0.89,1.27l0.07 0 0 -5.72c0,-0.4 -0.16,-0.6 -0.47,-0.6l-0.54 0.01 -0.03 -0.06 0.13 -0.63c0.1,0.01 0.28,0.02 0.54,0.03 0.27,0.02 0.54,0.02 0.81,0.02 0.25,0 0.52,-0.01 0.82,-0.04 0.29,-0.04 0.49,-0.06 0.59,-0.07l-0.08 0.65c-0.33,0.05 -0.57,0.14 -0.72,0.28 -0.15,0.13 -0.23,0.34 -0.24,0.61l-0.2 7.93 -0.41 0.2zm11.29 -0.39c-0.4,0 -0.76,-0.04 -1.09,-0.11 -0.33,-0.07 -0.61,-0.15 -0.82,-0.23 -0.21,-0.09 -0.32,-0.13 -0.32,-0.14l-0.07 -0.15c0.01,-0.05 0.03,-0.19 0.06,-0.42 0.03,-0.22 0.05,-0.52 0.08,-0.88 0.02,-0.36 0.03,-0.75 0.03,-1.15l0.64 -0.07c0,0.7 0.05,1.23 0.14,1.56 0.1,0.34 0.27,0.58 0.53,0.7 0.25,0.13 0.64,0.19 1.17,0.19 0.6,0 1.08,-0.13 1.44,-0.41 0.36,-0.28 0.54,-0.66 0.54,-1.14 0,-0.28 -0.1,-0.53 -0.29,-0.76 -0.2,-0.23 -0.43,-0.42 -0.69,-0.58 -0.27,-0.16 -0.66,-0.38 -1.18,-0.65 -0.49,-0.25 -0.89,-0.49 -1.21,-0.7 -0.31,-0.21 -0.57,-0.46 -0.78,-0.75 -0.22,-0.29 -0.32,-0.63 -0.32,-1.02 0,-0.49 0.14,-0.93 0.43,-1.33 0.29,-0.4 0.68,-0.72 1.18,-0.95 0.49,-0.23 1.05,-0.34 1.65,-0.34 0.38,0 0.73,0.02 1.05,0.07 0.32,0.05 0.58,0.11 0.77,0.17 0.19,0.05 0.31,0.09 0.35,0.11l0.05 0.08c-0.01,0.06 -0.04,0.19 -0.08,0.4 -0.03,0.21 -0.08,0.49 -0.12,0.86 -0.05,0.37 -0.09,0.74 -0.12,1.13l-0.55 0.05 -0.09 -0.07c0.01,-0.03 0.02,-0.12 0.03,-0.26 0.01,-0.13 0.02,-0.29 0.02,-0.47 0,-0.5 -0.13,-0.84 -0.37,-1.03 -0.25,-0.19 -0.69,-0.28 -1.32,-0.28 -0.52,0 -0.95,0.13 -1.29,0.39 -0.33,0.25 -0.5,0.58 -0.5,0.96 0,0.38 0.16,0.71 0.49,0.98 0.33,0.28 0.81,0.58 1.44,0.91 0.61,0.31 1.08,0.57 1.4,0.77 0.33,0.21 0.61,0.46 0.86,0.76 0.24,0.3 0.37,0.65 0.37,1.04 0,0.53 -0.15,1 -0.45,1.42 -0.3,0.42 -0.71,0.75 -1.24,0.98 -0.53,0.24 -1.14,0.36 -1.82,0.36zm15.12 0c-0.99,0 -1.76,-0.27 -2.3,-0.82 -0.54,-0.54 -0.8,-1.31 -0.8,-2.3l0 -4.68c0,-0.3 -0.04,-0.5 -0.11,-0.6 -0.07,-0.11 -0.21,-0.16 -0.42,-0.16 -0.09,0 -0.19,0.01 -0.28,0.02 -0.1,0.01 -0.16,0.01 -0.2,0.01l-0.03 -0.06 0.1 -0.62c0.11,0.01 0.33,0.02 0.64,0.03 0.32,0.01 0.64,0.01 0.96,0.01 0.26,0 0.55,-0.01 0.87,-0.04 0.32,-0.04 0.53,-0.06 0.62,-0.08l-0.05 0.63c-0.35,0.05 -0.59,0.13 -0.71,0.24 -0.12,0.1 -0.18,0.29 -0.2,0.57l-0.12 4.15c0,0.93 0.21,1.64 0.61,2.14 0.41,0.5 1,0.75 1.76,0.75 0.78,0 1.37,-0.2 1.78,-0.61 0.4,-0.41 0.61,-1 0.61,-1.77 -0.01,-0.76 -0.03,-1.62 -0.04,-2.58 -0.02,-0.96 -0.04,-1.64 -0.05,-2.03 -0.02,-0.33 -0.06,-0.53 -0.12,-0.62 -0.06,-0.09 -0.19,-0.14 -0.4,-0.14 -0.12,0 -0.23,0.01 -0.36,0.02 -0.12,0.01 -0.21,0.01 -0.25,0.01l-0.03 -0.06 0.1 -0.62c0.11,0.01 0.33,0.02 0.64,0.03 0.32,0.01 0.64,0.01 0.96,0.01 0.26,0 0.53,-0.01 0.82,-0.04 0.29,-0.04 0.47,-0.06 0.56,-0.08l-0.06 0.63c-0.28,0.04 -0.49,0.09 -0.63,0.14 -0.14,0.05 -0.23,0.12 -0.28,0.22 -0.04,0.1 -0.07,0.25 -0.07,0.45l0 4.74c0,0.99 -0.3,1.75 -0.92,2.29 -0.61,0.55 -1.48,0.82 -2.6,0.82zm12.15 -0.68c0.36,-0.06 0.62,-0.17 0.76,-0.33 0.13,-0.17 0.2,-0.45 0.2,-0.86l0.02 -5.93c0,-0.3 -0.04,-0.5 -0.11,-0.6 -0.07,-0.11 -0.21,-0.16 -0.42,-0.16 -0.09,0 -0.19,0.01 -0.28,0.02 -0.1,0.01 -0.16,0.01 -0.2,0.01l-0.03 -0.06 0.1 -0.62c0.11,0.01 0.32,0.02 0.64,0.03 0.31,0.01 0.63,0.01 0.95,0.01 0.25,0 0.54,-0.01 0.87,-0.04 0.33,-0.04 0.54,-0.06 0.65,-0.08l-0.06 0.63c-0.31,0.04 -0.53,0.1 -0.65,0.19 -0.11,0.08 -0.19,0.18 -0.21,0.29 -0.02,0.12 -0.05,0.39 -0.08,0.84 -0.05,0.8 -0.1,1.71 -0.12,2.73 -0.03,1.03 -0.05,1.93 -0.05,2.71 0,0.34 0.03,0.59 0.09,0.73 0.05,0.15 0.16,0.24 0.32,0.29 0.15,0.05 0.42,0.07 0.8,0.07 0.58,0 1,-0.05 1.27,-0.14 0.27,-0.09 0.47,-0.28 0.61,-0.55 0.14,-0.27 0.26,-0.71 0.38,-1.31l0.62 -0.07 0.04 0.07c-0.03,0.15 -0.08,0.49 -0.17,1.01 -0.09,0.53 -0.17,1.09 -0.24,1.67l-0.07 0.08c-0.27,-0.02 -0.84,-0.04 -1.7,-0.07 -0.85,-0.04 -1.56,-0.05 -2.12,-0.05 -0.44,0 -0.85,0.02 -1.21,0.05 -0.37,0.04 -0.59,0.07 -0.69,0.09l0.09 -0.65zm13.53 -0.04c0.47,-0.04 0.8,-0.1 0.98,-0.18 0.18,-0.08 0.3,-0.23 0.35,-0.44 0.06,-0.21 0.09,-0.58 0.09,-1.12l0 -6.15c-0.81,0.02 -1.35,0.07 -1.64,0.13 -0.29,0.06 -0.49,0.2 -0.59,0.41 -0.1,0.21 -0.2,0.62 -0.28,1.23l-0.67 0.06c0.11,-0.89 0.18,-1.71 0.21,-2.44l0.13 -0.11 1.18 0.15 4.4 0 1.2 -0.15 0.13 0.11c0.03,0.77 0.1,1.57 0.21,2.38l-0.66 0.06c-0.11,-0.62 -0.21,-1.04 -0.31,-1.26 -0.11,-0.21 -0.29,-0.35 -0.56,-0.42 -0.26,-0.07 -0.77,-0.12 -1.53,-0.15 -0.06,0.56 -0.11,1.56 -0.16,2.99 -0.04,1.43 -0.07,2.72 -0.07,3.87 0,0.34 0.06,0.59 0.19,0.74 0.12,0.14 0.33,0.22 0.62,0.22 0.28,0 0.55,-0.02 0.78,-0.05l0.04 0.06 -0.12 0.65 -0.47 -0.02 -1.62 -0.02c-0.52,0 -1.17,0.02 -1.94,0.05l0.11 -0.6z"/>
  <path class="fil1" d="M12.23 35.53c-1.19,0 -2.24,-0.13 -3.15,-0.4 -0.91,-0.26 -1.7,-0.58 -2.36,-0.94 -0.77,-0.4 -1.41,-0.86 -1.94,-1.39 -0.27,0.36 -0.56,0.69 -0.87,0.99 -0.32,0.3 -0.61,0.53 -0.87,0.7 -0.33,0.23 -0.66,0.41 -0.99,0.54l-1.25 0 0 -8.44 1.99 0c0.46,1.45 1.09,2.75 1.89,3.87 0.66,0.96 1.52,1.84 2.58,2.64 1.06,0.79 2.39,1.19 3.98,1.19 1.39,0 2.44,-0.35 3.15,-1.04 0.72,-0.7 1.07,-1.68 1.07,-2.94 0,-0.92 -0.35,-1.72 -1.07,-2.38 -0.71,-0.66 -1.59,-1.29 -2.65,-1.89 -1.06,-0.6 -2.22,-1.2 -3.48,-1.81 -1.26,-0.62 -2.42,-1.3 -3.48,-2.07 -1.06,-0.76 -1.95,-1.64 -2.66,-2.63 -0.71,-0.99 -1.07,-2.2 -1.07,-3.63 0,-0.93 0.19,-1.8 0.57,-2.61 0.38,-0.81 1,-1.52 1.84,-2.13 0.85,-0.62 1.93,-1.1 3.26,-1.44 1.32,-0.35 2.91,-0.53 4.77,-0.53 0.99,0 1.9,0.14 2.73,0.43 0.83,0.28 1.54,0.6 2.14,0.96 0.69,0.4 1.32,0.85 1.89,1.35 0.26,-0.37 0.55,-0.69 0.87,-0.97 0.31,-0.28 0.6,-0.52 0.86,-0.72 0.34,-0.2 0.67,-0.38 1,-0.55l1.24 0 0 8.45 -1.99 0c-0.49,-1.43 -1.11,-2.7 -1.84,-3.83 -0.62,-0.96 -1.42,-1.85 -2.38,-2.66 -0.96,-0.81 -2.14,-1.21 -3.53,-1.21 -0.86,0 -1.61,0.33 -2.26,0.99 -0.65,0.66 -0.97,1.49 -0.97,2.48 0,1 0.36,1.86 1.07,2.59 0.71,0.73 1.6,1.41 2.66,2.04 1.06,0.63 2.22,1.24 3.48,1.83 1.26,0.6 2.42,1.27 3.48,2.02 1.06,0.74 1.94,1.59 2.65,2.53 0.72,0.95 1.07,2.08 1.07,3.41 0,1.06 -0.2,2.02 -0.59,2.9 -0.4,0.88 -1.05,1.64 -1.94,2.29 -0.9,0.64 -2.07,1.14 -3.53,1.49 -1.46,0.35 -3.25,0.52 -5.37,0.52zm23.61 -13.17c1.12,0 2.12,-0.02 2.98,-0.07 0.86,-0.05 1.59,-0.11 2.19,-0.18 0.69,-0.06 1.29,-0.15 1.78,-0.24 0.07,-0.34 0.15,-0.7 0.25,-1.1 0.07,-0.36 0.13,-0.77 0.18,-1.22 0.05,-0.44 0.07,-0.91 0.07,-1.41 0,-1.49 -0.11,-2.74 -0.35,-3.75 -0.23,-1.01 -0.52,-1.83 -0.87,-2.46 -0.34,-0.63 -0.74,-1.08 -1.19,-1.35 -0.45,-0.26 -0.88,-0.39 -1.32,-0.39 -0.43,0 -0.87,0.15 -1.31,0.47 -0.45,0.31 -0.85,0.91 -1.2,1.79 -0.34,0.88 -0.63,2.11 -0.86,3.7 -0.24,1.59 -0.35,3.66 -0.35,6.21zm4.97 13.17c-4.24,0 -7.54,-1.17 -9.89,-3.5 -2.35,-2.34 -3.53,-5.56 -3.53,-9.67 0,-2.05 0.3,-3.89 0.89,-5.51 0.6,-1.63 1.43,-3.01 2.49,-4.15 1.06,-1.15 2.34,-2.02 3.85,-2.61 1.51,-0.6 3.16,-0.9 4.94,-0.9 1.86,0 3.52,0.27 5,0.8 1.47,0.53 2.72,1.24 3.75,2.14 1.03,0.89 1.81,1.94 2.36,3.15 0.55,1.21 0.82,2.49 0.82,3.85 0,0.47 -0.02,0.87 -0.07,1.22 -0.05,0.35 -0.11,0.65 -0.18,0.92 -0.1,0.33 -0.18,0.61 -0.25,0.84 -1.45,0.3 -2.99,0.55 -4.62,0.75 -1.39,0.2 -3,0.37 -4.82,0.52 -1.82,0.15 -3.72,0.22 -5.71,0.22 0,2.06 0.15,3.77 0.44,5.15 0.3,1.37 0.72,2.47 1.25,3.28 0.53,0.81 1.16,1.39 1.89,1.74 0.72,0.35 1.52,0.52 2.38,0.52 0.99,0 1.93,-0.18 2.81,-0.55 0.88,-0.36 1.64,-0.85 2.28,-1.46 0.65,-0.62 1.16,-1.31 1.54,-2.09 0.39,-0.78 0.58,-1.57 0.58,-2.36l1.24 0c0,0.99 -0.22,1.95 -0.67,2.88 -0.45,0.93 -1.09,1.75 -1.92,2.46 -0.82,0.71 -1.82,1.28 -2.98,1.72 -1.16,0.43 -2.45,0.64 -3.87,0.64zm20.87 -35.53c2.98,0 4.47,1.49 4.47,4.47l0 28.83 2.98 0.74 0 0.75 -13.91 0 0 -0.75 2.98 -0.74 0 -31.81 -2.98 -0.74 0 -0.75 6.46 0zm20.12 23.11c-0.19,0.43 -0.36,0.93 -0.49,1.49 -0.13,0.46 -0.25,1.01 -0.35,1.64 -0.1,0.63 -0.15,1.32 -0.15,2.09 0,1.98 0.31,3.39 0.92,4.22 0.61,0.83 1.3,1.24 2.06,1.24 0.76,0 1.42,-0.2 1.97,-0.62 0.54,-0.41 1,-0.87 1.36,-1.37 0.43,-0.59 0.81,-1.25 1.14,-1.98l0 -7.21c-0.76,0 -1.52,0.03 -2.28,0.08 -0.76,0.05 -1.46,0.1 -2.09,0.17 -0.73,0.1 -1.42,0.18 -2.09,0.25zm1.99 -13.92c1.99,0 3.75,0.27 5.29,0.8 1.55,0.53 2.85,1.27 3.91,2.21 1.06,0.94 1.86,2.07 2.41,3.38 0.54,1.31 0.82,2.74 0.82,4.3l0 13.42 2.98 0.74 0 0.75 -4.47 0c-1.2,0 -2.16,-0.19 -2.89,-0.58 -0.73,-0.38 -1.31,-0.8 -1.74,-1.26 -0.49,-0.57 -0.86,-1.2 -1.09,-1.89 -0.43,0.86 -0.98,1.61 -1.64,2.24 -0.56,0.56 -1.31,1.07 -2.24,1.54 -0.92,0.46 -2.03,0.69 -3.33,0.69 -1.55,0 -2.9,-0.17 -4.05,-0.52 -1.14,-0.35 -2.09,-0.83 -2.85,-1.44 -0.76,-0.61 -1.34,-1.33 -1.72,-2.14 -0.38,-0.81 -0.57,-1.68 -0.57,-2.61 0,-0.76 0.08,-1.46 0.25,-2.11 0.17,-0.65 0.36,-1.22 0.6,-1.71 0.26,-0.6 0.56,-1.15 0.89,-1.64 1.39,-0.34 2.87,-0.63 4.42,-0.9 1.33,-0.23 2.82,-0.45 4.48,-0.67 1.65,-0.21 3.33,-0.36 5.01,-0.42l0 -1.49c0,-1.92 -0.12,-3.51 -0.37,-4.77 -0.25,-1.26 -0.6,-2.26 -1.07,-2.98 -0.46,-0.73 -1.03,-1.24 -1.71,-1.52 -0.68,-0.28 -1.45,-0.42 -2.31,-0.42 -0.37,0 -0.7,0.02 -1,0.07 -0.29,0.05 -0.56,0.11 -0.79,0.18 -0.27,0.1 -0.5,0.18 -0.7,0.24l0 7.46c-0.23,0.06 -0.44,0.11 -0.64,0.15 -0.2,0.03 -0.41,0.06 -0.62,0.07 -0.22,0.02 -0.46,0.03 -0.72,0.03 -1.13,0 -2.03,-0.34 -2.71,-1.02 -0.68,-0.68 -1.02,-1.58 -1.02,-2.71 0,-0.7 0.17,-1.37 0.52,-2.01 0.35,-0.65 0.9,-1.23 1.64,-1.74 0.75,-0.52 1.7,-0.93 2.86,-1.24 1.16,-0.32 2.55,-0.48 4.17,-0.48z"/>
 </g>
</svg>
